<?xml version="1.0" encoding="UTF-8" standalone="no"?>
<!-- Generator: Adobe Illustrator 19.1.0, SVG Export Plug-In . SVG Version: 6.00 Build 0)  -->

<svg
   xmlns:dc="http://purl.org/dc/elements/1.1/"
   xmlns:cc="http://creativecommons.org/ns#"
   xmlns:rdf="http://www.w3.org/1999/02/22-rdf-syntax-ns#"
   xmlns:svg="http://www.w3.org/2000/svg"
   xmlns="http://www.w3.org/2000/svg"
   xmlns:sodipodi="http://sodipodi.sourceforge.net/DTD/sodipodi-0.dtd"
   xmlns:inkscape="http://www.inkscape.org/namespaces/inkscape"
   version="1.1"
   x="0px"
   y="0px"
   viewBox="0 0 64 64"
   style="enable-background:new 0 0 64 64;"
   xml:space="preserve"
   id="svg70"
   sodipodi:docname="rocket-2.svg"
   inkscape:version="0.92.3 (2405546, 2018-03-11)"><metadata
   id="metadata76"><rdf:RDF><cc:Work
       rdf:about=""><dc:format>image/svg+xml</dc:format><dc:type
         rdf:resource="http://purl.org/dc/dcmitype/StillImage" /><dc:title></dc:title></cc:Work></rdf:RDF></metadata><defs
   id="defs74" /><sodipodi:namedview
   pagecolor="#ffffff"
   bordercolor="#666666"
   borderopacity="1"
   objecttolerance="10"
   gridtolerance="10"
   guidetolerance="10"
   inkscape:pageopacity="0"
   inkscape:pageshadow="2"
   inkscape:window-width="1920"
   inkscape:window-height="1017"
   id="namedview72"
   showgrid="false"
   inkscape:zoom="14.75"
   inkscape:cx="27.153105"
   inkscape:cy="34.312243"
   inkscape:window-x="-8"
   inkscape:window-y="-8"
   inkscape:window-maximized="1"
   inkscape:current-layer="Layer_1" />
<style
   type="text/css"
   id="style2">
	.st0{fill:#4F5D73;}
	.st1{opacity:0.2;}
	.st2{fill:#231F20;}
	.st3{fill:#C75C5C;}
	.st4{fill:#E0995E;}
	.st5{fill:#F5CF87;}
	.st6{fill:#E0E0D1;}
</style>
<g
   id="Layer_1">
	<g
   id="g6">
		
	<ellipse
   style="opacity:0.1;fill:#aaaaaa;fill-opacity:0;stroke:none;stroke-width:0.75590551;stroke-miterlimit:4;stroke-dasharray:none;paint-order:markers fill stroke"
   id="path4586"
   cx="25.457626"
   cy="12.067797"
   rx="1.2542373"
   ry="1.1525424" /><ellipse
   style="opacity:0.1;fill:#aaaaaa;fill-opacity:0;stroke:none;stroke-width:0.75590551;stroke-miterlimit:4;stroke-dasharray:none;paint-order:markers fill stroke"
   id="path4588"
   cx="26.677967"
   cy="15.762712"
   rx="4.237288"
   ry="0.10169491" /><ellipse
   style="opacity:0.1;fill:#aaaaaa;fill-opacity:0;stroke:none;stroke-width:0.75590551;stroke-miterlimit:4;stroke-dasharray:none;paint-order:markers fill stroke"
   id="path4590"
   cx="23.830509"
   cy="9.2542372"
   rx="2.881356"
   ry="4.237288" /></g>
	<g
   class="st1"
   id="g10">
		<path
   class="st2"
   d="M32.1,39.7C30.5,41.2,26,52.2,26,52.2c-0.7,1.2,0.3,2.1,2.6,0.9l8.1-4.4c4.4-2.4,5.2-3.1,5.2-8l-0.8-5.9    c-0.3-2-1.8-2.4-3.3-0.8L32.1,39.7z"
   id="path8" />
	</g>
	<g
   class="st1"
   id="g14">
		<path
   class="st2"
   d="M27.1,34.7c-1.6,1.6-12.5,6.1-12.5,6.1c-1.2,0.7-2.1-0.3-0.9-2.6L18,30c2.4-4.4,3.1-5.2,8-5.2l5.9,0.8    c2,0.3,2.4,1.8,0.8,3.3L27.1,34.7z"
   id="path12" />
	</g>
	<g
   id="g18">
		<path
   class="st3"
   d="M32.1,37.7C30.5,39.2,26,50.2,26,50.2c-0.7,1.2,0.3,2.1,2.6,0.9l8.1-4.4c4.4-2.4,5.2-3.1,5.2-8l-0.8-5.9    c-0.3-2-1.8-2.4-3.3-0.8L32.1,37.7z"
   id="path16" />
	</g>
	<g
   id="g22">
		<path
   class="st3"
   d="M27.1,32.7c-1.6,1.6-12.5,6.1-12.5,6.1c-1.2,0.7-2.1-0.3-0.9-2.6L18,28c2.4-4.4,3.1-5.2,8-5.2l5.9,0.8    c2,0.3,2.4,1.8,0.8,3.3L27.1,32.7z"
   id="path20" />
	</g>
	<g
   class="st1"
   id="g26">
		<path
   class="st2"
   d="M21.2,39.5c5.1-5.1,9.3-3.5,9.3-3.5s1.5,4.3-3.5,9.3s-13.3,8.8-13.9,8.1C12.5,52.9,16.2,44.6,21.2,39.5z"
   id="path24" />
	</g>
	<g
   id="g30">
		<path
   class="st4"
   d="M21.2,37.5c5.1-5.1,9.3-3.5,9.3-3.5s1.5,4.3-3.5,9.3s-13.3,8.8-13.9,8.1C12.5,50.9,16.2,42.6,21.2,37.5z"
   id="path28" />
	</g>
	<g
   id="g34">
		<path
   class="st5"
   d="M25.5,33.3c5.1-5.1,9.3-3.5,9.3-3.5s1.5,4.3-3.5,9.3S18,47.9,17.4,47.2C16.7,46.6,20.4,38.4,25.5,33.3z"
   id="path32" />
	</g>
	<g
   class="st1"
   id="g38">
		<path
   class="st2"
   d="M43.6,37.1c-7.8,7.8-19.8,5.7-19.8,5.7s-2.1-12,5.7-19.8s19.6-8.6,21.2-7.1C52.2,17.4,51.4,29.3,43.6,37.1z"
   id="path36" />
	</g>
	<g
   id="g42">
		<path
   class="st6"
   d="M43.6,35.1c-7.8,7.8-19.8,5.7-19.8,5.7s-2.1-12,5.7-19.8s19.6-8.6,21.2-7.1C52.2,15.4,51.4,27.3,43.6,35.1z"
   id="path40" />
	</g>
	<g
   class="st1"
   id="g46">
		<path
   class="st2"
   d="M21,47c-0.8,0.8-1.3,1.5-2.1,0.7l0,0c-0.8-0.8-0.1-1.3,0.7-2.1l9.9-12.7c0.8-0.8,4.2-1.5,4.9-0.7l0,0    c0.8,0.8,0.1,4.2-0.7,4.9L21,47z"
   id="path44" />
	</g>
	<g
   id="g50">
		<path
   class="st3"
   d="M21,45c-0.8,0.8-1.3,1.5-2.1,0.7l0,0c-0.8-0.8-0.1-1.3,0.7-2.1l9.9-12.7c0.8-0.8,4.2-1.5,4.9-0.7l0,0    c0.8,0.8,0.1,4.2-0.7,4.9L21,45z"
   id="path48" />
	</g>
	<g
   class="st1"
   id="g54">
		<circle
   class="st2"
   cx="39.6"
   cy="27.1"
   r="4"
   id="circle52" />
	</g>
	<g
   class="st1"
   id="g58">
		<circle
   class="st2"
   cx="45.3"
   cy="21.5"
   r="2"
   id="circle56" />
	</g>
	<g
   id="g62">
		<circle
   class="st0"
   cx="39.6"
   cy="25.1"
   r="4"
   id="circle60" />
	</g>
	<g
   id="g66">
		<circle
   class="st0"
   cx="45.3"
   cy="19.5"
   r="2"
   id="circle64" />
	</g>
<rect
   style="opacity:0.1;fill:#aaaaaa;fill-opacity:0;stroke:none;stroke-width:0.75590551;stroke-miterlimit:4;stroke-dasharray:none;paint-order:markers fill stroke"
   id="rect4592"
   width="8.8135595"
   height="10.033898"
   x="5.0847459"
   y="2.6440678" /><rect
   style="opacity:0.1;fill:#2aaaaa;fill-opacity:0;stroke:none;stroke-width:0.75590551;stroke-miterlimit:4;stroke-dasharray:none;paint-order:markers fill stroke"
   id="rect4594"
   width="64.135597"
   height="64.067795"
   x="7.3021575e-008"
   y="-1.0885763e-007" /></g>
<g
   id="Layer_2">
</g>
</svg>