<?xml version="1.0" standalone="no"?>
<!DOCTYPE svg PUBLIC "-//W3C//DTD SVG 20010904//EN"
 "http://www.w3.org/TR/2001/REC-SVG-20010904/DTD/svg10.dtd">
<svg version="1.0" xmlns="http://www.w3.org/2000/svg"
 width="200.000000pt" height="200.000000pt" viewBox="0 0 200.000000 200.000000"
 preserveAspectRatio="xMidYMid meet">
<metadata>
Created by potrace 1.16, written by Peter Selinger 2001-2019
</metadata>
<g transform="translate(0.000000,200.000000) scale(0.100000,-0.100000)"
fill="#000000" stroke="none">
<path d="M835 1994 c-117 -18 -284 -72 -268 -88 4 -4 -1 -4 -11 0 -13 5 -17 4
-12 -4 5 -8 2 -10 -9 -6 -10 4 -31 -5 -53 -23 -20 -17 -53 -38 -72 -48 -45
-23 -212 -190 -235 -235 -10 -19 -31 -52 -48 -72 -18 -22 -27 -43 -23 -53 4
-11 2 -14 -6 -9 -8 5 -9 1 -4 -12 4 -10 4 -15 0 -11 -10 10 -51 -91 -72 -178
-34 -141 -18 -517 24 -560 7 -7 10 -15 7 -19 -10 -10 49 -146 60 -139 6 3 7 1
3 -5 -7 -12 12 -57 21 -48 3 3 17 -18 32 -47 32 -63 179 -214 247 -252 27 -16
58 -36 69 -46 29 -26 146 -74 245 -100 74 -20 109 -23 265 -23 154 0 192 3
261 22 105 28 240 85 236 100 -1 7 3 12 9 12 27 0 130 75 202 147 72 72 147
175 147 202 0 6 5 10 12 9 15 -4 72 131 100 236 19 69 22 107 22 261 0 156 -3
191 -23 265 -26 99 -74 216 -100 245 -10 11 -30 42 -46 69 -38 68 -189 215
-252 247 -29 15 -49 29 -46 33 8 8 -146 77 -177 79 -14 1 -28 6 -31 10 -16 22
-124 38 -279 42 -91 2 -178 1 -195 -1z m194 -369 c17 -8 36 -13 41 -10 6 3 10
0 10 -8 0 -15 67 -52 89 -48 7 1 10 -2 6 -8 -3 -6 10 -18 29 -28 l36 -17 0
-169 c0 -157 -1 -169 -17 -162 -10 5 -26 8 -35 9 -9 0 -14 4 -12 8 3 4 -6 12
-20 18 -25 9 -25 11 -28 126 l-3 118 -55 32 c-30 18 -65 33 -78 34 -31 0 -84
-28 -76 -41 3 -6 0 -9 -7 -8 -23 5 -60 -12 -53 -23 5 -7 2 -8 -5 -4 -7 5 -20
1 -29 -7 -9 -8 -43 -29 -74 -47 l-58 -32 0 -354 c0 -328 1 -355 18 -362 19 -8
117 -64 202 -117 55 -34 90 -44 90 -25 0 5 6 7 13 5 6 -3 37 10 67 29 30 19
88 53 128 76 l72 41 0 153 0 154 -28 11 c-15 6 -41 23 -57 37 -16 13 -34 23
-41 20 -7 -3 -14 1 -17 7 -5 13 -187 113 -200 109 -4 -1 -6 2 -5 7 2 5 -5 16
-15 23 -17 13 -15 16 31 37 l49 23 79 -43 c44 -24 100 -57 126 -74 26 -16 78
-47 117 -68 l71 -37 0 -203 c0 -234 10 -209 -116 -277 -126 -67 -164 -91 -164
-103 0 -6 -3 -8 -6 -4 -3 3 -28 -8 -55 -24 -28 -16 -56 -29 -62 -29 -7 0 -46
21 -87 46 -41 25 -118 69 -170 98 -52 28 -105 60 -117 71 l-23 19 0 406 c0
368 4 434 24 431 13 -2 66 30 66 40 0 6 4 8 9 5 9 -6 115 47 143 71 9 8 41 28
70 43 29 16 52 34 50 40 -3 14 37 6 77 -15z m-78 -530 c5 4 9 3 8 -2 -1 -4 -1
-34 0 -65 1 -44 5 -58 16 -58 7 0 18 6 22 13 4 7 23 19 41 26 25 11 35 11 47
1 8 -7 15 -10 15 -6 0 3 8 -2 18 -11 17 -17 15 -20 -45 -54 -35 -19 -60 -39
-56 -43 5 -4 3 -7 -2 -6 -25 5 -45 -2 -80 -30 -21 -16 -42 -30 -46 -30 -5 0
-9 65 -9 145 l0 146 30 -16 c17 -9 35 -13 41 -10z"/>
</g>
</svg>
